<mxfile host="app.diagrams.net" modified="2021-12-20T16:31:59.957Z" agent="5.0 (Windows NT 10.0; Win64; x64) AppleWebKit/537.36 (KHTML, like Gecko) Chrome/96.0.4664.110 Safari/537.36" etag="hpSGqdZcWp2BvYpKgl0S" version="15.8.6" type="github">
  <diagram id="C5RBs43oDa-KdzZeNtuy" name="Page-1">
    <mxGraphModel dx="2036" dy="560" grid="1" gridSize="10" guides="1" tooltips="1" connect="1" arrows="1" fold="1" page="1" pageScale="1" pageWidth="827" pageHeight="1169" math="0" shadow="0">
      <root>
        <mxCell id="WIyWlLk6GJQsqaUBKTNV-0" />
        <mxCell id="WIyWlLk6GJQsqaUBKTNV-1" parent="WIyWlLk6GJQsqaUBKTNV-0" />
        <mxCell id="JIG8oCYCMdzA0qy7OW5Z-1" value="Dofus Client / Server ?" style="ellipse;whiteSpace=wrap;html=1;fillColor=#d5e8d4;strokeColor=#82b366;" vertex="1" parent="WIyWlLk6GJQsqaUBKTNV-1">
          <mxGeometry x="640" y="210" width="134" height="60" as="geometry" />
        </mxCell>
        <mxCell id="JIG8oCYCMdzA0qy7OW5Z-75" style="edgeStyle=orthogonalEdgeStyle;rounded=0;orthogonalLoop=1;jettySize=auto;html=1;startArrow=none;startFill=0;" edge="1" parent="WIyWlLk6GJQsqaUBKTNV-1" target="JIG8oCYCMdzA0qy7OW5Z-74">
          <mxGeometry relative="1" as="geometry">
            <mxPoint x="707" y="470" as="sourcePoint" />
          </mxGeometry>
        </mxCell>
        <mxCell id="JIG8oCYCMdzA0qy7OW5Z-2" value="Request2Dofus" style="rounded=0;whiteSpace=wrap;html=1;" vertex="1" parent="WIyWlLk6GJQsqaUBKTNV-1">
          <mxGeometry x="647" y="470" width="120" height="60" as="geometry" />
        </mxCell>
        <mxCell id="JIG8oCYCMdzA0qy7OW5Z-54" style="edgeStyle=orthogonalEdgeStyle;rounded=0;orthogonalLoop=1;jettySize=auto;html=1;entryX=0.448;entryY=-0.017;entryDx=0;entryDy=0;entryPerimeter=0;startArrow=none;startFill=0;" edge="1" parent="WIyWlLk6GJQsqaUBKTNV-1" source="JIG8oCYCMdzA0qy7OW5Z-4" target="JIG8oCYCMdzA0qy7OW5Z-23">
          <mxGeometry relative="1" as="geometry" />
        </mxCell>
        <mxCell id="JIG8oCYCMdzA0qy7OW5Z-78" style="edgeStyle=orthogonalEdgeStyle;rounded=0;orthogonalLoop=1;jettySize=auto;html=1;startArrow=none;startFill=0;" edge="1" parent="WIyWlLk6GJQsqaUBKTNV-1" source="JIG8oCYCMdzA0qy7OW5Z-4" target="JIG8oCYCMdzA0qy7OW5Z-1">
          <mxGeometry relative="1" as="geometry" />
        </mxCell>
        <mxCell id="JIG8oCYCMdzA0qy7OW5Z-4" value="InitConnexion" style="rounded=0;whiteSpace=wrap;html=1;" vertex="1" parent="WIyWlLk6GJQsqaUBKTNV-1">
          <mxGeometry x="100" y="210" width="120" height="60" as="geometry" />
        </mxCell>
        <mxCell id="JIG8oCYCMdzA0qy7OW5Z-62" style="edgeStyle=orthogonalEdgeStyle;rounded=0;orthogonalLoop=1;jettySize=auto;html=1;startArrow=none;startFill=0;" edge="1" parent="WIyWlLk6GJQsqaUBKTNV-1" source="JIG8oCYCMdzA0qy7OW5Z-23" target="JIG8oCYCMdzA0qy7OW5Z-48">
          <mxGeometry relative="1" as="geometry" />
        </mxCell>
        <mxCell id="JIG8oCYCMdzA0qy7OW5Z-63" style="edgeStyle=orthogonalEdgeStyle;rounded=0;orthogonalLoop=1;jettySize=auto;html=1;startArrow=none;startFill=0;" edge="1" parent="WIyWlLk6GJQsqaUBKTNV-1" source="JIG8oCYCMdzA0qy7OW5Z-23" target="JIG8oCYCMdzA0qy7OW5Z-42">
          <mxGeometry relative="1" as="geometry" />
        </mxCell>
        <mxCell id="JIG8oCYCMdzA0qy7OW5Z-64" style="edgeStyle=orthogonalEdgeStyle;rounded=0;orthogonalLoop=1;jettySize=auto;html=1;entryX=0.5;entryY=0;entryDx=0;entryDy=0;startArrow=none;startFill=0;" edge="1" parent="WIyWlLk6GJQsqaUBKTNV-1" source="JIG8oCYCMdzA0qy7OW5Z-23" target="JIG8oCYCMdzA0qy7OW5Z-44">
          <mxGeometry relative="1" as="geometry" />
        </mxCell>
        <mxCell id="JIG8oCYCMdzA0qy7OW5Z-65" style="edgeStyle=orthogonalEdgeStyle;rounded=0;orthogonalLoop=1;jettySize=auto;html=1;startArrow=none;startFill=0;" edge="1" parent="WIyWlLk6GJQsqaUBKTNV-1" source="JIG8oCYCMdzA0qy7OW5Z-23" target="JIG8oCYCMdzA0qy7OW5Z-46">
          <mxGeometry relative="1" as="geometry" />
        </mxCell>
        <mxCell id="JIG8oCYCMdzA0qy7OW5Z-66" style="edgeStyle=orthogonalEdgeStyle;rounded=0;orthogonalLoop=1;jettySize=auto;html=1;startArrow=none;startFill=0;" edge="1" parent="WIyWlLk6GJQsqaUBKTNV-1" source="JIG8oCYCMdzA0qy7OW5Z-23" target="JIG8oCYCMdzA0qy7OW5Z-60">
          <mxGeometry relative="1" as="geometry" />
        </mxCell>
        <mxCell id="JIG8oCYCMdzA0qy7OW5Z-23" value="ActionClass" style="rounded=0;whiteSpace=wrap;html=1;" vertex="1" parent="WIyWlLk6GJQsqaUBKTNV-1">
          <mxGeometry x="107" y="380" width="120" height="60" as="geometry" />
        </mxCell>
        <mxCell id="JIG8oCYCMdzA0qy7OW5Z-82" style="edgeStyle=orthogonalEdgeStyle;rounded=0;orthogonalLoop=1;jettySize=auto;html=1;startArrow=none;startFill=0;" edge="1" parent="WIyWlLk6GJQsqaUBKTNV-1" source="JIG8oCYCMdzA0qy7OW5Z-42" target="JIG8oCYCMdzA0qy7OW5Z-2">
          <mxGeometry relative="1" as="geometry">
            <Array as="points">
              <mxPoint x="310" y="640" />
              <mxPoint x="707" y="640" />
            </Array>
          </mxGeometry>
        </mxCell>
        <mxCell id="JIG8oCYCMdzA0qy7OW5Z-42" value="MovePlayer(X,Y)" style="rounded=0;whiteSpace=wrap;html=1;" vertex="1" parent="WIyWlLk6GJQsqaUBKTNV-1">
          <mxGeometry x="250" y="470" width="120" height="60" as="geometry" />
        </mxCell>
        <mxCell id="JIG8oCYCMdzA0qy7OW5Z-80" style="edgeStyle=orthogonalEdgeStyle;rounded=0;orthogonalLoop=1;jettySize=auto;html=1;entryX=0.5;entryY=1;entryDx=0;entryDy=0;startArrow=none;startFill=0;" edge="1" parent="WIyWlLk6GJQsqaUBKTNV-1" source="JIG8oCYCMdzA0qy7OW5Z-44" target="JIG8oCYCMdzA0qy7OW5Z-2">
          <mxGeometry relative="1" as="geometry">
            <Array as="points">
              <mxPoint x="28" y="640" />
              <mxPoint x="707" y="640" />
            </Array>
          </mxGeometry>
        </mxCell>
        <mxCell id="JIG8oCYCMdzA0qy7OW5Z-44" value="Work" style="rounded=0;whiteSpace=wrap;html=1;" vertex="1" parent="WIyWlLk6GJQsqaUBKTNV-1">
          <mxGeometry x="-30" y="470" width="116.5" height="60" as="geometry" />
        </mxCell>
        <mxCell id="JIG8oCYCMdzA0qy7OW5Z-79" style="edgeStyle=orthogonalEdgeStyle;rounded=0;orthogonalLoop=1;jettySize=auto;html=1;startArrow=none;startFill=0;" edge="1" parent="WIyWlLk6GJQsqaUBKTNV-1" source="JIG8oCYCMdzA0qy7OW5Z-46" target="JIG8oCYCMdzA0qy7OW5Z-2">
          <mxGeometry relative="1" as="geometry">
            <Array as="points">
              <mxPoint x="-110" y="640" />
              <mxPoint x="707" y="640" />
            </Array>
          </mxGeometry>
        </mxCell>
        <mxCell id="JIG8oCYCMdzA0qy7OW5Z-46" value="Fight" style="rounded=0;whiteSpace=wrap;html=1;" vertex="1" parent="WIyWlLk6GJQsqaUBKTNV-1">
          <mxGeometry x="-170" y="470" width="120" height="60" as="geometry" />
        </mxCell>
        <mxCell id="JIG8oCYCMdzA0qy7OW5Z-81" style="edgeStyle=orthogonalEdgeStyle;rounded=0;orthogonalLoop=1;jettySize=auto;html=1;startArrow=none;startFill=0;" edge="1" parent="WIyWlLk6GJQsqaUBKTNV-1" source="JIG8oCYCMdzA0qy7OW5Z-48" target="JIG8oCYCMdzA0qy7OW5Z-2">
          <mxGeometry relative="1" as="geometry">
            <Array as="points">
              <mxPoint x="167" y="640" />
              <mxPoint x="707" y="640" />
            </Array>
          </mxGeometry>
        </mxCell>
        <mxCell id="JIG8oCYCMdzA0qy7OW5Z-88" style="edgeStyle=orthogonalEdgeStyle;rounded=0;orthogonalLoop=1;jettySize=auto;html=1;startArrow=none;startFill=0;" edge="1" parent="WIyWlLk6GJQsqaUBKTNV-1" source="JIG8oCYCMdzA0qy7OW5Z-48" target="JIG8oCYCMdzA0qy7OW5Z-84">
          <mxGeometry relative="1" as="geometry" />
        </mxCell>
        <mxCell id="JIG8oCYCMdzA0qy7OW5Z-48" value="GetPos" style="rounded=0;whiteSpace=wrap;html=1;" vertex="1" parent="WIyWlLk6GJQsqaUBKTNV-1">
          <mxGeometry x="107" y="470" width="120" height="60" as="geometry" />
        </mxCell>
        <mxCell id="JIG8oCYCMdzA0qy7OW5Z-83" style="edgeStyle=orthogonalEdgeStyle;rounded=0;orthogonalLoop=1;jettySize=auto;html=1;startArrow=none;startFill=0;" edge="1" parent="WIyWlLk6GJQsqaUBKTNV-1" source="JIG8oCYCMdzA0qy7OW5Z-60" target="JIG8oCYCMdzA0qy7OW5Z-2">
          <mxGeometry relative="1" as="geometry">
            <Array as="points">
              <mxPoint x="460" y="640" />
              <mxPoint x="707" y="640" />
            </Array>
          </mxGeometry>
        </mxCell>
        <mxCell id="JIG8oCYCMdzA0qy7OW5Z-60" value="DropBank" style="rounded=0;whiteSpace=wrap;html=1;" vertex="1" parent="WIyWlLk6GJQsqaUBKTNV-1">
          <mxGeometry x="400" y="470" width="120" height="60" as="geometry" />
        </mxCell>
        <mxCell id="JIG8oCYCMdzA0qy7OW5Z-77" style="edgeStyle=orthogonalEdgeStyle;rounded=0;orthogonalLoop=1;jettySize=auto;html=1;entryX=0.5;entryY=1;entryDx=0;entryDy=0;startArrow=none;startFill=0;" edge="1" parent="WIyWlLk6GJQsqaUBKTNV-1" source="JIG8oCYCMdzA0qy7OW5Z-74" target="JIG8oCYCMdzA0qy7OW5Z-1">
          <mxGeometry relative="1" as="geometry" />
        </mxCell>
        <mxCell id="JIG8oCYCMdzA0qy7OW5Z-74" value="AntiBot" style="rounded=0;whiteSpace=wrap;html=1;" vertex="1" parent="WIyWlLk6GJQsqaUBKTNV-1">
          <mxGeometry x="647" y="380" width="120" height="60" as="geometry" />
        </mxCell>
        <mxCell id="JIG8oCYCMdzA0qy7OW5Z-90" style="edgeStyle=orthogonalEdgeStyle;rounded=0;orthogonalLoop=1;jettySize=auto;html=1;startArrow=none;startFill=0;" edge="1" parent="WIyWlLk6GJQsqaUBKTNV-1" source="JIG8oCYCMdzA0qy7OW5Z-84">
          <mxGeometry relative="1" as="geometry">
            <mxPoint x="160" y="380" as="targetPoint" />
            <Array as="points">
              <mxPoint x="167" y="740" />
              <mxPoint x="-260" y="740" />
              <mxPoint x="-260" y="340" />
              <mxPoint x="160" y="340" />
              <mxPoint x="160" y="380" />
            </Array>
          </mxGeometry>
        </mxCell>
        <mxCell id="JIG8oCYCMdzA0qy7OW5Z-84" value="NextAction" style="rounded=0;whiteSpace=wrap;html=1;" vertex="1" parent="WIyWlLk6GJQsqaUBKTNV-1">
          <mxGeometry x="108.5" y="660" width="117" height="60" as="geometry" />
        </mxCell>
      </root>
    </mxGraphModel>
  </diagram>
</mxfile>
